<?xml version="1.0" encoding="UTF-8" standalone="no" ?>
<!DOCTYPE svg PUBLIC "-//W3C//DTD SVG 1.1//EN" "http://www.w3.org/Graphics/SVG/1.1/DTD/svg11.dtd">
<svg xmlns="http://www.w3.org/2000/svg" xmlns:xlink="http://www.w3.org/1999/xlink" version="1.1" width="1080" height="1080" viewBox="0 0 1080 1080" xml:space="preserve">
<desc>Created with Fabric.js 5.2.4</desc>
<defs>
</defs>
<g transform="matrix(1 0 0 1 540 540)" id="07a7a990-8e15-4150-bd41-b489a446223b"  >
<rect style="stroke: none; stroke-width: 1; stroke-dasharray: none; stroke-linecap: butt; stroke-dashoffset: 0; stroke-linejoin: miter; stroke-miterlimit: 4; fill: rgb(255,255,255); fill-rule: nonzero; opacity: 1; visibility: hidden;" vector-effect="non-scaling-stroke"  x="-540" y="-540" rx="0" ry="0" width="1080" height="1080" />
</g>
<g transform="matrix(1 0 0 1 540 540)" id="d68d1672-6e53-4e9c-b859-461aef90ef29"  >
</g>
<g transform="matrix(1 0 0 1 549.25 499.15)"  >
<path style="stroke: none; stroke-width: 1; stroke-dasharray: none; stroke-linecap: butt; stroke-dashoffset: 0; stroke-linejoin: miter; stroke-miterlimit: 4; fill: rgb(0,0,0); fill-rule: nonzero; opacity: 1;" vector-effect="non-scaling-stroke"  transform=" translate(-50, -24.72)" d="M 48.262 33.969 L 48.262 35.0706 C 48.262 35.35185 48.48075 35.5706 48.762 35.5706 L 51.2308 35.5706 C 51.51205 35.5706 51.7308 35.35185 51.7308 35.0706 L 51.7308 33.969 C 54.191700000000004 33.340090000000004 55.93 31.140900000000002 55.93 28.578400000000002 C 55.93 26.019800000000004 54.1917 23.8089 51.7308 23.187800000000003 L 51.7308 19.265900000000002 C 52.18002 19.664340000000003 52.46127 20.246370000000002 52.46127 20.867500000000003 L 52.46127 21.558910000000004 C 52.46127 21.840160000000004 52.68002 22.058910000000004 52.96127 22.058910000000004 L 55.43007 22.058910000000004 C 55.71132 22.058910000000004 55.93007 21.840160000000004 55.93007 21.558910000000004 L 55.93007 20.867500000000003 C 55.93007 18.3089 54.19177 16.098000000000003 51.73087 15.476900000000004 L 51.73087 14.375300000000005 C 51.73087 14.094050000000005 51.51212 13.875300000000005 51.23087 13.875300000000005 L 48.76207 13.875300000000005 C 48.48082 13.875300000000005 48.26207 14.094050000000005 48.26207 14.375300000000005 L 48.26207 15.476900000000004 C 45.80117 16.105810000000005 44.062870000000004 18.305000000000003 44.062870000000004 20.867500000000003 C 44.062870000000004 23.426100000000005 45.801170000000006 25.637000000000004 48.26207 26.258100000000002 L 48.26207 30.168300000000002 C 47.812850000000005 29.76986 47.531600000000005 29.18783 47.531600000000005 28.5667 L 47.531600000000005 28.14482 C 47.531600000000005 27.86357 47.312850000000005 27.64482 47.031600000000005 27.64482 L 44.5628 27.64482 C 44.28155 27.64482 44.0628 27.86357 44.0628 28.14482 L 44.0628 28.5667 C 44.058894 31.1487 45.801100000000005 33.3519 48.262 33.969 z M 46.5315 28.6721 C 46.570562 29.9533 47.38306 31.0823 48.5901 31.5237 C 48.73854 31.574481000000002 48.91041 31.55495 49.05104 31.465106000000002 C 49.19167 31.375262000000003 49.26198 31.215106000000002 49.26198 31.054946 L 49.26198 25.875246 C 49.26198 25.636966 49.0901 25.426026 48.851820000000004 25.386966 C 46.652620000000006 24.996346000000003 45.062720000000006 23.105766000000003 45.062720000000006 20.886966 C 45.062720000000006 18.668166 46.65252 16.777566 48.851820000000004 16.386966 C 49.09010000000001 16.347903000000002 49.26198 16.136966 49.26198 15.898686000000001 L 49.26198 14.898686000000001 L 50.73078 14.898686000000001 L 50.73078 15.898686000000001 C 50.73078 16.136966 50.902660000000004 16.347906000000002 51.14094 16.386966 C 53.34014 16.777586 54.93004 18.668166 54.93004 20.886966 L 54.93004 21.078376000000002 L 53.46124 21.078376000000002 L 53.46124 20.886966 C 53.46124 19.578366000000003 52.633109999999995 18.398666000000002 51.40264 17.957266 C 51.2542 17.906485 51.08233 17.926016 50.9417 18.01586 C 50.801069999999996 18.105704 50.73076 18.26586 50.73076 18.42602 L 50.73076 23.60572 C 50.73076 23.844 50.90264 24.054940000000002 51.140919999999994 24.094 C 53.34011999999999 24.48462 54.93001999999999 26.3752 54.93001999999999 28.594 C 54.93001999999999 30.812800000000003 53.340219999999995 32.7034 51.140919999999994 33.094 C 50.90263999999999 33.133062 50.73076 33.344 50.73076 33.582280000000004 L 50.73076 34.582280000000004 L 49.261959999999995 34.582280000000004 L 49.261959999999995 33.582280000000004 C 49.261959999999995 33.344 49.09007999999999 33.13306000000001 48.8518 33.094 C 46.679899999999996 32.715090000000004 45.1018 30.863500000000002 45.0627 28.6838 L 46.5315 28.679894 z" stroke-linecap="round" />
</g>
<g transform="matrix(1 0 0 1 547.15 495.3)"  >
<path style="stroke: none; stroke-width: 1; stroke-dasharray: none; stroke-linecap: butt; stroke-dashoffset: 0; stroke-linejoin: miter; stroke-miterlimit: 4; fill: rgb(0,0,0); fill-rule: nonzero; opacity: 1;" vector-effect="non-scaling-stroke"  transform=" translate(-47.9, -20.87)" d="M 49.262 18.41 C 49.262 18.24984 49.183875 18.08969 49.05106 17.99984 C 48.92215 17.909996 48.75028 17.87875 48.59012 17.941246 C 47.35962 18.382656 46.53152 19.562345999999998 46.53152 20.870946 C 46.53152 22.179546000000002 47.35964 23.359246 48.59012 23.800646 C 48.648714 23.820177 48.6995 23.831896 48.762 23.831896 C 48.86356 23.831896 48.96122 23.800646 49.05106 23.742053000000002 C 49.17997 23.652209000000003 49.262 23.492053000000002 49.262 23.331893 z M 48.262 22.4803 C 47.812780000000004 22.08186 47.531530000000004 21.49983 47.531530000000004 20.8787 C 47.531530000000004 20.257569999999998 47.812780000000004 19.679499999999997 48.262 19.277099999999997 z" stroke-linecap="round" />
</g>
<g transform="matrix(1 0 0 1 551.35 503.01)"  >
<path style="stroke: none; stroke-width: 1; stroke-dasharray: none; stroke-linecap: butt; stroke-dashoffset: 0; stroke-linejoin: miter; stroke-miterlimit: 4; fill: rgb(0,0,0); fill-rule: nonzero; opacity: 1;" vector-effect="non-scaling-stroke"  transform=" translate(-52.1, -28.58)" d="M 51.238 31.539 C 51.296594 31.539 51.34738 31.527282000000003 51.40988 31.50775 C 52.64038 31.06634 53.46848 29.886650000000003 53.46848 28.57805 C 53.46848 27.26945 52.64036 26.089750000000002 51.40988 25.64835 C 51.26144 25.589756 51.08957 25.6171 50.94894 25.706943 C 50.80832 25.796787 50.738 25.956943 50.738 26.117103 L 50.738 31.039003 C 50.738 31.199163000000002 50.816125 31.359313 50.94894 31.449163000000002 C 51.030971 31.511663000000002 51.12863 31.539006 51.238 31.539006 z M 51.738 26.980400000000003 C 52.187219999999996 27.378840000000004 52.468469999999996 27.960870000000003 52.468469999999996 28.582000000000004 C 52.468469999999996 29.203090000000003 52.187219999999996 29.781200000000005 51.738 30.183600000000006 z" stroke-linecap="round" />
</g>
<g transform="matrix(1 0 0 1 567.06 548.61)"  >
<path style="stroke: none; stroke-width: 1; stroke-dasharray: none; stroke-linecap: butt; stroke-dashoffset: 0; stroke-linejoin: miter; stroke-miterlimit: 4; fill: rgb(0,0,0); fill-rule: nonzero; opacity: 1;" vector-effect="non-scaling-stroke"  transform=" translate(-67.81, -74.18)" d="M 65.801 83.672 L 69.801 83.672 C 70.08225 83.672 70.301 83.45325 70.301 83.172 L 70.301 73.672 L 71.801 73.672 C 71.97288 73.672 72.12912 73.582156 72.23069 73.43372 C 72.320533 73.28528 72.33225 73.1056 72.250221 72.94543999999999 L 68.250221 64.94543999999999 C 68.078341 64.6056 67.531471 64.6056 67.359601 64.94543999999999 L 63.359601 72.94543999999999 C 63.281476 73.09387999999998 63.289288 73.28527999999999 63.379132 73.43372 C 63.468976 73.58215999999999 63.629132 73.672 63.808822 73.672 L 65.30882199999999 73.672 L 65.30882199999999 83.172 C 65.301009 83.44933999999999 65.51976199999999 83.672 65.80101199999999 83.672 z M 64.6018 72.672 L 67.7932 66.2931 L 70.9846 72.672 L 69.801 72.672 C 69.51975 72.672 69.301 72.89075 69.301 73.172 L 69.301 82.672 L 66.301 82.672 L 66.301 73.172 C 66.301 72.89075 66.08225 72.672 65.801 72.672 z" stroke-linecap="round" />
</g>
<g transform="matrix(1 0 0 1 531.45 548.6)"  >
<path style="stroke: none; stroke-width: 1; stroke-dasharray: none; stroke-linecap: butt; stroke-dashoffset: 0; stroke-linejoin: miter; stroke-miterlimit: 4; fill: rgb(0,0,0); fill-rule: nonzero; opacity: 1;" vector-effect="non-scaling-stroke"  transform=" translate(-32.2, -74.18)" d="M 34.199 64.672 L 30.198999999999998 64.672 C 29.917749999999998 64.672 29.698999999999998 64.89075 29.698999999999998 65.172 L 29.698999999999998 74.672 L 28.198999999999998 74.672 C 28.027119999999996 74.672 27.87088 74.761844 27.769309999999997 74.91028 C 27.679467 75.05872 27.667749999999998 75.2384 27.749778999999997 75.39856 L 31.749778999999997 83.39856 C 31.827903999999997 83.57043 32.01149899999999 83.67981 32.19899899999999 83.67981 C 32.39040899999999 83.67981 32.558378999999995 83.57043 32.64821899999999 83.39856 L 36.64821899999999 75.39856 C 36.72634299999999 75.25012000000001 36.71853099999999 75.05872000000001 36.62868699999999 74.91028 C 36.53884299999999 74.76184 36.37868699999999 74.672 36.19899699999999 74.672 L 34.69899699999999 74.672 L 34.69899699999999 65.172 C 34.69899699999999 64.89856 34.48024699999999 64.672 34.19899699999999 64.672 z M 35.398199999999996 75.672 L 32.206799999999994 82.0509 L 29.015399999999993 75.672 L 30.206799999999994 75.672 C 30.488049999999994 75.672 30.706799999999994 75.45325 30.706799999999994 75.172 L 30.706799999999994 65.672 L 33.706799999999994 65.672 L 33.706799999999994 75.172 C 33.706799999999994 75.45325 33.925549999999994 75.672 34.206799999999994 75.672 z" stroke-linecap="round" />
</g>
<g transform="matrix(1 0 0 1 549.24 524.44)"  >
<path style="stroke: none; stroke-width: 1; stroke-dasharray: none; stroke-linecap: butt; stroke-dashoffset: 0; stroke-linejoin: miter; stroke-miterlimit: 4; fill: rgb(0,0,0); fill-rule: nonzero; opacity: 1;" vector-effect="non-scaling-stroke"  transform=" translate(-49.99, -50.01)" d="M 19.039 41.621 L 19.050719 41.632718000000004 L 44.030719000000005 71.972718 L 44.030719000000005 92.144718 C 44.030719000000005 92.316598 44.108844000000005 92.465028 44.249469000000005 92.566598 C 44.327594000000005 92.625192 44.429159000000006 92.644723 44.530719000000005 92.644723 C 44.601031000000006 92.644723 44.659629 92.633004 44.722129 92.605661 L 55.663129000000005 88.047061 C 55.854539 87.968936 55.97171900000001 87.785341 55.97171900000001 87.586121 L 55.97171900000001 71.984121 L 80.95171900000001 41.644121 C 80.95171900000001 41.644121 80.95171900000001 41.632402 80.96343800000001 41.632402 C 81.29155800000001 41.413652 81.424378 41.171462 81.47515800000001 40.960532 C 81.486877 40.929282 81.486877 40.90975 81.486877 40.882406 C 81.486877 40.851156 81.498596 40.831625 81.498596 40.804282 L 81.498596 40.78475 L 81.498596 40.773032 C 81.498596 40.7535 81.486877 40.741782 81.486877 40.72225 C 81.28765700000001 38.691050000000004 70.955877 37.83165 61.767877000000006 37.47225 C 65.32647700000001 34.191050000000004 67.35767700000001 29.62065 67.35767700000001 24.742250000000002 C 67.35767700000001 15.171950000000002 59.56857700000001 7.38325 49.99867700000001 7.38325 C 40.428777000000004 7.38325 32.639677000000006 15.172350000000002 32.639677000000006 24.742250000000002 C 32.639677000000006 29.62115 34.678777000000004 34.18365 38.229477 37.47225 C 29.377877000000005 37.82381 19.467477000000002 38.632450000000006 18.569477000000003 40.55035 C 18.557759000000004 40.569881 18.549946000000002 40.5816 18.538227000000003 40.601131 C 18.526509000000004 40.632381 18.518696000000002 40.651913 18.518696000000002 40.679257 C 18.506977000000003 40.718319 18.499165 40.749569 18.499165 40.788627 C 18.499165 40.808158999999996 18.487446000000002 40.819877 18.487446000000002 40.839408999999996 C 18.518696000000002 41.03862899999999 18.620256 41.339408999999996 19.038226 41.620658999999996 z M 55.121 71.441 C 55.031156 71.530844 54.97256 71.65975 54.97256 71.79256000000001 L 54.97256 87.24156 L 45.03116 91.38216000000001 L 45.03116 71.83916000000002 C 45.042879 71.71025000000002 44.99991 71.56963000000002 44.92178 71.46807000000003 L 20.92178 42.32007000000003 C 25.542879999999997 43.49977000000003 36.88278 44.30057000000003 49.99978 44.30057000000003 C 63.12878 44.30057000000003 74.46078 43.499790000000026 79.07778 42.32007000000003 z M 33.641000000000005 24.730000000000004 C 33.641000000000005 15.710500000000003 40.9808 8.371000000000002 50.00000000000001 8.371000000000002 C 59.01920000000001 8.371000000000002 66.35900000000001 15.710800000000003 66.35900000000001 24.730000000000004 C 66.35900000000001 29.730000000000004 64.10900000000001 34.39020000000001 60.198800000000006 37.519000000000005 C 57.276900000000005 39.8588 53.74960000000001 41.08930000000001 49.99980000000001 41.08930000000001 C 46.25000000000001 41.08930000000001 42.73030000000001 39.85880000000001 39.80080000000001 37.519000000000005 C 35.890600000000006 34.390100000000004 33.640600000000006 29.729900000000004 33.640600000000006 24.730000000000004 z M 39.3207 38.42100000000001 C 42.3988 40.81940000000001 46.0824 42.09290000000001 50.0007 42.09290000000001 C 53.910900000000005 42.09290000000001 57.6023 40.82340000000001 60.6807 38.42100000000001 C 73.7317 38.88975000000001 79.4697 40.022600000000004 80.3997 40.74130000000001 L 80.309856 40.84286000000001 C 78.290356 42.042060000000006 67.02885599999999 43.31166000000001 49.989855999999996 43.31166000000001 C 32.950855999999995 43.31166000000001 21.688855999999998 42.04216000000001 19.680855999999995 40.84286000000001 L 19.591011999999996 40.74130000000001 C 20.540231999999996 40.01083000000001 26.290211999999997 38.87800000000001 39.321011999999996 38.42100000000001 z" stroke-linecap="round" />
</g>
<g transform="matrix(1 0 0 1 549.25 499.16)"  >
<path style="stroke: none; stroke-width: 1; stroke-dasharray: none; stroke-linecap: butt; stroke-dashoffset: 0; stroke-linejoin: miter; stroke-miterlimit: 4; fill: rgb(0,0,0); fill-rule: nonzero; opacity: 1;" vector-effect="non-scaling-stroke"  transform=" translate(-50, -24.73)" d="M 45.109 38.238 C 45.128531 38.249719 45.14025 38.249719 45.159781 38.257531 C 45.378531 38.335657 45.601191 38.398161 45.819941 38.456751 C 45.980101 38.507532 46.148071 38.566131 46.308221 38.605191 L 46.327752000000004 38.605191 C 46.546502000000004 38.663784 46.769162 38.706751 46.987912 38.753631 C 47.019162 38.76535 47.038693 38.76535 47.066037 38.773163 C 47.214477 38.804413 47.366817000000005 38.843475 47.515257 38.874722999999996 L 47.526976 38.874722999999996 C 47.776976 38.913785 48.038695999999995 38.945035 48.288695999999995 38.976282999999995 C 48.30822799999999 38.976282999999995 48.32775899999999 38.988001999999994 48.35900899999999 38.988001999999994 C 48.48791899999999 38.999720999999994 48.62072899999999 39.02706499999999 48.74962899999999 39.038782999999995 L 48.76134799999999 39.038782999999995 C 49.17150799999999 39.077845999999994 49.58165799999999 39.08956499999999 49.99964799999999 39.08956499999999 C 50.421527999999995 39.08956499999999 50.82776799999999 39.070032999999995 51.237947999999996 39.038782999999995 C 51.359038 39.02706499999999 51.476228 39.007532999999995 51.597328 38.988001999999994 C 51.886388 38.956751999999994 52.175447999999996 38.92940899999999 52.456708 38.87862199999999 C 52.597328 38.85909099999999 52.737958 38.82002799999999 52.886398 38.78877799999999 C 53.148118 38.73799699999999 53.405928 38.687217999999994 53.667648 38.616907999999995 C 53.827808 38.577844999999996 53.976238 38.515347999999996 54.136398 38.47627799999999 C 54.366868 38.40596599999999 54.597338 38.347367999999996 54.827808 38.26533799999999 C 54.847339 38.26533799999999 54.866870999999996 38.25361899999999 54.886402 38.24580699999999 C 60.54660199999999 36.19500699999999 64.35520199999999 30.765306999999993 64.35520199999999 24.73380699999999 C 64.35520199999999 16.81190699999999 57.91380199999999 10.374806999999992 49.99620199999999 10.374806999999992 C 42.07430199999999 10.374806999999992 35.63720199999999 16.81620699999999 35.63720199999999 24.73380699999999 C 35.64110799999999 30.761106999999992 39.44970199999999 36.19080699999999 45.10990199999999 38.23780699999999 z M 49.9996 11.370999999999999 C 57.3707 11.370999999999999 63.3586 17.359299999999998 63.3586 24.729999999999997 C 63.3586 30.319799999999997 59.8391 35.358999999999995 54.596900000000005 37.281 C 54.577369000000004 37.281 54.557838000000004 37.292719 54.546119000000004 37.300531 C 54.35470900000001 37.370844 54.16720900000001 37.421621 53.975809000000005 37.480221 C 51.956309000000005 38.109131 49.784409000000004 38.249751 47.706309000000005 37.890381 C 46.94458900000001 37.761471 46.19460900000001 37.562261 45.468009 37.300540999999996 C 45.448478 37.288821999999996 45.436759 37.288821999999996 45.417228 37.288821999999996 C 40.167228 35.366921999999995 36.647728 30.327921999999997 36.647728 24.729822 C 36.639915 17.358722 42.628228 11.370821999999999 49.999728000000005 11.370821999999999 z" stroke-linecap="round" />
</g>
</svg>